# xmcd
#
# Track frame offsets: 
#        150
#        15153
#        32506
#        60774
#        76236
#        105833
#        131391
#        155950
#        176587
#        188993
#        214429
#        233487
#
# Disc length: 3366 seconds
#
# Revision: 0
# Processed by: cddbd v1.5.2PL0 Copyright (c) Steve Scherf et al.
# Submitted via: ExactAudioCopy v0.99pb4
#
DISCID=870d240c
DTITLE=Gino Matteo - I've Been Thinkin'
DYEAR=2007
DGENRE=Blues
TTITLE0=Chasing the Dragon
TTITLE1=Only 24
TTITLE2=Bone in the Soup
TTITLE3=Chocolate Jesus
TTITLE4=I've Been Thinkin'
TTITLE5=Follow the Funk
TTITLE6=Liquor Store Man
TTITLE7=Hopeless Sinner
TTITLE8=Fat Cat
TTITLE9=Lamb
TTITLE10=Ophelia
TTITLE11=I've Been Drinkin' (Straight Tequila)
EXTD=
EXTT0=
EXTT1=
EXTT2=
EXTT3=
EXTT4=
EXTT5=
EXTT6=
EXTT7=
EXTT8=
EXTT9=
EXTT10=
EXTT11=
PLAYORDER=
